<svg width="541" height="407" viewBox="0 0 541 407" fill="none" xmlns="http://www.w3.org/2000/svg">
<g clip-path="url(#clip0_20_296)">
<path opacity="0.1" d="M98.7781 125.613C104.321 147.288 116.044 166.026 134.57 175.109C173.083 193.985 259.942 184.25 324.767 173.075C358.299 167.295 387.773 151.344 409.184 128.896L98.7781 125.613Z" fill="#3DB2FF"/>
<path opacity="0.1" d="M438.718 23.5811H403.15C401.462 23.5811 400.077 22.3153 400.077 20.7687C400.077 19.222 401.462 17.953 403.15 17.953H409.302C407.611 17.953 406.229 16.6873 406.229 15.1374C406.229 13.5875 407.611 12.325 409.302 12.325H404.911C403.22 12.325 401.835 11.0592 401.835 9.50933C401.835 7.95943 403.22 6.69691 404.911 6.69691H423.476C419.356 4.9436 414.541 3.69722 408.992 3.04175C358.37 -2.9092 340.297 1.02688 333.921 5.07275C325.975 10.1785 317.148 13.7213 307.903 15.5152C276.671 21.4145 218.262 28.5117 165.323 13.2549C139.011 5.65719 119.455 18.4793 107.735 39.9131H444.896C444.456 33.6845 443.138 27.9305 440.719 22.8965C440.146 23.3441 439.442 23.585 438.718 23.5811V23.5811Z" fill="#3DB2FF"/>
<path opacity="0.1" d="M95.7625 80.3685C94.3964 92.9749 94.8608 105.716 97.141 118.186L409.423 128.645C418.019 119.622 425.323 109.425 431.121 98.3505L95.7625 80.3685ZM219.274 107.346H213.125C214.816 107.346 216.201 108.615 216.201 110.162C216.201 111.709 214.816 112.974 213.125 112.974H177.557C175.869 112.974 174.484 111.709 174.484 110.162C174.484 108.615 175.869 107.346 177.557 107.346H183.709C182.018 107.346 180.636 106.081 180.636 104.534C180.636 102.987 182.018 101.718 183.709 101.718H179.315C177.624 101.718 176.239 100.453 176.239 98.9059C176.239 97.3593 177.624 96.0903 179.315 96.0903H214.883C216.575 96.0903 217.956 97.356 217.956 98.9059C217.956 100.456 216.575 101.718 214.883 101.718H219.274C220.965 101.718 222.347 102.984 222.347 104.534C222.347 106.084 220.965 107.346 219.274 107.346Z" fill="#3DB2FF"/>
<path opacity="0.1" d="M444.909 40.1068L103.973 47.6948C99.8247 57.4559 97.0741 68.4925 95.8074 79.9294H438.935C441.169 73.2381 442.825 66.3639 443.888 59.3836C444.912 52.6642 445.32 46.1643 444.909 40.1068ZM165.03 64.9859H158.881C160.572 64.9859 161.957 66.2548 161.957 67.8015C161.957 69.3482 160.572 70.6171 158.881 70.6171H123.313C121.625 70.6171 120.24 69.3482 120.24 67.8015C120.24 66.2548 121.625 64.9859 123.313 64.9859H129.464C127.773 64.9859 126.392 63.7201 126.392 62.1734C126.392 60.6268 127.773 59.3578 129.464 59.3578H125.071C123.38 59.3578 121.995 58.0921 121.995 56.5454C121.995 54.9987 123.38 53.7297 125.071 53.7297H160.639C162.33 53.7297 163.712 54.9955 163.712 56.5454C163.712 58.0953 162.33 59.3578 160.639 59.3578H165.03C166.721 59.3578 168.102 60.6268 168.102 62.1734C168.102 63.7201 166.721 64.9859 165.03 64.9859Z" fill="#3DB2FF"/>
<path opacity="0.1" d="M268.927 252.207C347.696 252.207 411.552 246.262 411.552 238.929C411.552 231.596 347.696 225.652 268.927 225.652C190.157 225.652 126.302 231.596 126.302 238.929C126.302 246.262 190.157 252.207 268.927 252.207Z" fill="#3DB2FF"/>
<path d="M414.289 129.261C414.288 129.239 414.288 129.216 414.289 129.193C414.289 129.158 414.289 129.126 414.289 129.093C414.225 128.723 414.087 128.371 413.884 128.057C413.154 126.874 412.137 125.9 410.929 125.228C408.823 124.059 405.929 123.559 405.087 121.328C404.828 120.637 404.822 119.884 404.694 119.161C404.471 118.034 403.959 116.986 403.209 116.123C402.459 115.26 401.498 114.612 400.422 114.243C399.42 113.904 398.338 113.811 397.365 113.391C395.189 112.455 394.04 110.146 393.067 108.011C391.808 105.256 390.548 102.5 389.289 99.7422C388.332 100.23 387.094 100 386.197 99.3902C385.333 98.7393 384.645 97.8787 384.196 96.8878C382.898 94.3369 382.339 91.447 380.814 89.0188C379.289 86.5907 376.242 84.6727 373.549 85.7285C373.023 85.9944 372.479 86.222 371.921 86.4098C369.614 86.9555 367.062 84.2884 365.086 85.5832C364.758 85.7962 364.491 86.0923 364.311 86.4421C364.309 86.4206 364.309 86.399 364.311 86.3775C364.054 86.9028 363.91 87.4773 363.89 88.063V88.063C363.89 88.1825 363.89 88.2988 363.89 88.4118C363.89 88.4312 363.89 88.4505 363.89 88.4699C363.89 88.9349 363.919 89.4063 363.925 89.8777C363.932 90.2736 363.902 90.6693 363.836 91.0595V91.0272C363.798 91.2468 363.743 91.4628 363.67 91.673C363.156 93.0679 361.733 93.9817 361.066 95.2927V95.2281C360.991 95.3707 360.926 95.5185 360.871 95.6704C360.753 96.0141 360.691 96.3753 360.689 96.7392C360.632 99.2029 363.213 101.521 363.513 104.166C363.727 106.039 364.151 106.639 365.725 107.698L366.069 107.931C365.932 107.931 365.792 107.95 365.635 107.953C365.574 107.955 365.513 107.961 365.453 107.973C365.176 107.895 364.885 107.881 364.601 107.932C364.317 107.982 364.048 108.095 363.813 108.263C362.607 109.232 359.754 108.486 358.488 108.263C357.221 108.041 352.881 108.641 352.275 111.076C351.669 113.51 350.629 118.535 350.629 118.535C350.629 118.535 350.629 121.722 350.243 122.316C350.228 122.357 350.228 122.403 350.243 122.445C350.243 123.339 350.274 128.715 349.419 130.101C349.209 130.424 349.225 131.137 349.381 132.015C348.481 133.188 347.636 134.557 347.786 135.454C348.06 137.292 351.742 143.068 357.02 139.975C357.02 139.975 360.022 134.418 356.245 131.463L356.407 130.818C357.55 132.238 358.395 133.259 358.395 133.259C358.395 133.259 358.44 133.378 358.51 133.582H358.395C358.888 134.939 359.187 136.362 359.282 137.805C359.268 138.334 359.173 138.858 359.001 139.358H359.1C359.072 139.468 359.04 139.578 359.001 139.681C358.816 140.226 358.47 140.701 358.009 141.04C355.37 142.933 352.349 156.446 352.349 156.446C352.349 156.446 346.362 178.29 345.166 179.533C344.177 180.553 350.393 183.427 355.058 183.085C355.709 183.045 356.352 182.922 356.972 182.716C357.001 183.039 357.033 183.362 357.065 183.656C357.163 184.625 357.266 185.522 357.329 185.803C357.495 186.507 357.824 193.695 357.824 193.695C357.824 193.695 357.151 198.364 357.313 201.612C357.313 201.835 357.342 202.048 357.361 202.258L356.781 202.348C355.9 204.35 359.528 221.054 360.023 222.458C360.35 223.565 360.535 224.71 360.571 225.865C360.571 225.865 360.252 227.053 360.517 227.702C360.682 228.099 360.79 228.517 360.836 228.945C360.836 228.945 360.619 230.024 360.948 230.728C361.277 231.432 360.894 232.665 360.894 232.665C360.894 232.665 360.785 237.531 359.796 240.179C359.527 240.891 359.448 241.663 359.569 242.416C359.689 243.169 360.004 243.877 360.482 244.467C360.551 244.559 360.625 244.646 360.705 244.728C360.705 244.728 366.162 244.774 367.122 244.728H367.247C367.633 244.673 368.622 240.295 367.741 238.186C366.86 236.078 367.633 233.482 367.633 233.482V229.646C367.633 229.646 368.622 228.722 367.633 226.74C366.644 224.757 366.806 224.157 366.806 224.157C366.806 224.157 367.907 220.967 366.752 219.94C365.597 218.913 366.972 215.019 366.972 215.019L367.361 202.038C367.158 201.971 366.95 201.917 366.739 201.877C366.717 201.664 366.695 201.444 366.672 201.212C366.446 198.861 366.251 195.664 366.755 194.754C367.259 193.843 367.502 185.894 367.582 180.369L372.61 180.563C372.716 183.146 372.827 185.503 372.898 185.803C373.063 186.507 373.395 193.695 373.395 193.695C373.395 193.695 372.719 198.364 372.882 201.612C372.882 201.835 372.91 202.048 372.929 202.258L372.349 202.348C371.468 204.35 375.096 221.054 375.591 222.458C375.919 223.565 376.104 224.71 376.143 225.865C376.143 225.865 375.824 227.053 376.085 227.702C376.25 228.099 376.358 228.517 376.404 228.945C376.404 228.945 376.187 230.024 376.516 230.728C376.845 231.432 376.462 232.665 376.462 232.665C376.462 232.665 376.353 237.531 375.364 240.179C375.099 240.892 375.025 241.664 375.149 242.416C375.274 243.168 375.592 243.873 376.072 244.46C376.141 244.552 376.216 244.64 376.296 244.722C376.296 244.722 381.752 244.767 382.713 244.722H382.837C383.223 244.667 384.212 240.289 383.332 238.18C382.451 236.072 383.223 233.475 383.223 233.475V229.646C383.223 229.646 384.212 228.722 383.223 226.74C382.234 224.757 382.397 224.157 382.397 224.157C382.397 224.157 383.498 220.967 382.342 219.94C381.187 218.913 382.563 215.019 382.563 215.019L382.958 202.038C382.749 201.97 382.536 201.916 382.32 201.877C382.298 201.664 382.275 201.444 382.253 201.212C382.027 198.861 381.832 195.664 382.336 194.754C382.741 194.008 382.974 189.203 383.08 184.512C383.08 184.189 383.08 183.866 383.105 183.543C385.416 183.446 387.717 183.185 389.991 182.762C389.991 182.762 387.301 173.136 388.124 171.57C388.478 170.895 387.968 167.301 387.269 163.43C388.244 164.228 389.455 164.672 390.709 164.689C391.912 167.03 395.572 172.416 397.633 173.246C400.052 174.215 398.236 165.626 397.084 164.382C396.539 163.704 396.08 162.958 395.719 162.164C395.75 162.125 395.786 162.093 395.817 162.058C395.849 162.022 395.875 152.92 395.323 153.084C394.771 153.249 394.114 151.731 394.114 151.731L392.41 136.597L391.695 130.262C392.292 130.708 393 130.992 393.609 131.434C395.269 132.665 395.811 134.825 396.539 136.736C397.138 138.309 397.981 139.868 399.362 140.856C400.744 141.844 402.77 142.106 404.149 141.105C405.425 140.165 405.802 138.47 406.082 136.923C408.399 137.747 411.21 135.545 410.91 133.139C410.837 132.545 410.62 131.896 410.926 131.376C411.539 130.349 413.479 130.947 414.117 129.933C414.224 129.757 414.28 129.555 414.277 129.348C414.286 129.303 414.289 129.284 414.289 129.261ZM383.303 137.585C383.268 138.163 384.053 142.807 384.691 146.481C384.168 144.192 383.118 141.748 381.05 140.072C381.05 140.072 381.05 139.955 381.025 139.749H381.05C381.05 139.749 380.964 138.825 380.951 137.511C380.955 136.346 381.04 135.183 381.207 134.03V134.001H381.165C381.165 133.904 381.191 133.804 381.207 133.707C381.333 132.735 381.594 131.785 381.982 130.885C382.153 130.533 382.351 130.194 382.572 129.871C382.914 132.994 383.335 137.001 383.303 137.585V137.585ZM385.02 148.344C385.3 149.93 385.501 151.044 385.501 151.044L387.196 162.816V162.871C386.283 157.902 385.119 152.665 385.119 152.665C385.237 151.225 385.204 149.777 385.02 148.344V148.344Z" fill="url(#paint0_linear_20_296)"/>
<path d="M364.254 104.812C363.934 101.828 360.744 99.2546 361.701 96.4163C362.221 94.8697 363.848 93.9236 364.397 92.3866C364.761 91.3727 364.598 90.2587 364.601 89.1803C364.605 88.1018 364.853 86.8974 365.741 86.3C367.655 85.0085 370.118 87.6659 372.352 87.1234C372.892 86.9365 373.418 86.7099 373.925 86.4453C376.532 85.3959 379.48 87.3075 380.945 89.7227C382.41 92.138 382.958 95.0182 384.216 97.5561C384.645 98.5362 385.31 99.392 386.149 100.046C387.017 100.653 388.204 100.882 389.142 100.398L392.796 108.631C393.753 110.753 394.851 113.052 396.944 113.985C397.882 114.402 398.929 114.495 399.899 114.834C400.953 115.211 401.891 115.86 402.619 116.719C403.347 117.577 403.839 118.614 404.047 119.726C404.171 120.449 404.174 121.198 404.426 121.886C405.24 124.108 408.038 124.605 410.077 125.761C411.257 126.434 412.246 127.402 412.949 128.573C413.268 129.132 413.543 129.865 413.201 130.414C412.585 131.421 410.712 130.827 410.119 131.851C409.819 132.367 410.03 133.013 410.119 133.607C410.409 136 407.687 138.192 405.447 137.372C405.176 138.912 404.809 140.601 403.578 141.534C402.253 142.535 400.291 142.271 398.954 141.289C397.617 140.307 396.807 138.754 396.226 137.188C395.521 135.283 394.994 133.133 393.389 131.909C392.808 131.47 392.113 131.186 391.545 130.743C390.269 129.755 389.63 128.125 389.174 126.546C388.584 124.576 388.115 122.551 387.26 120.692C386.404 118.832 385.052 117.101 383.198 116.252C381.459 115.461 379.455 115.512 377.658 114.87C374.566 113.765 372.279 111.134 369.203 109.894C368.219 109.476 367.288 108.943 366.427 108.305C364.879 107.275 364.458 106.678 364.254 104.812Z" fill="#3F3D56"/>
<g opacity="0.1">
<path opacity="0.1" d="M364.541 91.7538C364.607 91.6275 364.664 91.497 364.713 91.3631C365.074 90.3492 364.914 89.2352 364.917 88.1567C364.917 87.7971 364.95 87.4381 365.016 87.0847C364.722 87.7227 364.579 88.4215 364.598 89.1254C364.595 89.994 364.697 90.9046 364.541 91.7538Z" fill="black"/>
<path opacity="0.1" d="M403.878 140.521C402.553 141.518 400.591 141.257 399.254 140.272C397.917 139.287 397.103 137.74 396.539 136.168C395.833 134.263 395.31 132.112 393.702 130.889C393.124 130.449 392.426 130.162 391.861 129.723C390.585 128.735 389.946 127.104 389.487 125.541C388.897 123.572 388.431 121.547 387.572 119.687C386.714 117.828 385.367 116.097 383.51 115.248C381.775 114.457 379.771 114.508 377.974 113.866C374.879 112.761 372.591 110.13 369.518 108.89C368.535 108.47 367.602 107.937 366.739 107.301C365.227 106.245 364.825 105.648 364.601 103.785C364.282 100.989 361.474 98.5507 361.911 95.9159C361.84 96.0584 361.777 96.2051 361.723 96.355C360.766 99.1965 363.957 101.77 364.276 104.75C364.483 106.613 364.914 107.211 366.414 108.267C367.277 108.903 368.209 109.436 369.193 109.855C372.266 111.095 374.554 113.73 377.649 114.831C379.445 115.477 381.449 115.422 383.185 116.213C385.042 117.062 386.376 118.796 387.247 120.653C388.118 122.51 388.584 124.528 389.161 126.507C389.63 128.07 390.246 129.7 391.535 130.688C392.113 131.128 392.812 131.415 393.376 131.854C394.972 133.078 395.508 135.228 396.213 137.133C396.794 138.699 397.608 140.249 398.945 141.231C400.281 142.213 402.244 142.477 403.568 141.48C404.414 140.834 404.844 139.849 405.128 138.793C404.876 139.474 404.443 140.072 403.878 140.521V140.521Z" fill="black"/>
<path opacity="0.1" d="M410.435 130.837C410.313 131.069 410.26 131.331 410.282 131.593C411.003 130.873 412.63 131.296 413.198 130.369C413.33 130.14 413.382 129.872 413.345 129.61C412.605 130.32 410.977 129.897 410.435 130.837Z" fill="black"/>
<path opacity="0.1" d="M405.747 136.359C405.687 136.681 405.626 137.027 405.55 137.363C407.502 137.979 409.758 136.394 410.077 134.392C409.302 135.932 407.387 136.962 405.747 136.359Z" fill="black"/>
</g>
<path d="M368.376 106.365C368.376 106.365 369.439 108.535 366.302 108.58C363.165 108.625 368.322 122.671 368.322 122.671L373.536 129.387L380.023 125.835L380.396 116.039L380.875 110.12C380.875 110.12 374.812 108.128 375.929 105.493C377.046 102.858 368.376 106.365 368.376 106.365Z" fill="#FBBEBE"/>
<path d="M387.205 163.633C387.205 163.633 391.034 167.447 395.502 162.387L392.071 158.703H387.732L387.205 163.633Z" fill="#575A89"/>
<path opacity="0.1" d="M387.62 158.703L387.094 163.633C387.094 163.633 390.923 167.447 395.39 162.387" fill="black"/>
<path d="M394.062 159.374C394.062 159.374 395.604 163.465 396.72 164.702C397.837 165.939 399.592 174.496 397.253 173.527C394.914 172.558 390.447 165.348 390.179 164.111C389.911 162.875 389.809 159.374 389.809 159.374H394.062Z" fill="#FBBEBE"/>
<path d="M360.613 180.362L381.245 181.17L378.852 172.342L368.459 172.129L360.613 180.362Z" fill="#575A89"/>
<path opacity="0.1" d="M363.481 180.362L384.117 181.17L381.724 172.342L371.328 172.129L363.481 180.362Z" fill="black"/>
<path d="M367.365 194.935C366.876 195.855 367.065 199.039 367.285 201.393C367.425 202.891 367.578 204.044 367.578 204.044C367.578 204.044 359.866 206.465 358.698 204.367C358.402 203.834 358.255 202.901 358.204 201.806C358.044 198.577 358.698 193.924 358.698 193.924C358.698 193.924 358.379 186.769 358.22 186.068C358.156 185.787 358.057 184.896 357.961 183.931C357.821 182.497 357.687 180.902 357.687 180.902L368.217 175.251C368.217 175.251 368.217 176.31 368.197 177.941C368.14 183.062 367.971 193.805 367.365 194.935Z" fill="#FBBEBE"/>
<path opacity="0.1" d="M367.578 204.044C367.578 204.044 359.866 206.465 358.698 204.367C358.402 203.834 358.255 202.901 358.204 201.806C359.799 201.561 364.656 200.883 367.285 201.393C367.425 202.891 367.578 204.044 367.578 204.044Z" fill="black"/>
<path d="M367.843 244.728H367.722C366.793 244.764 361.516 244.728 361.516 244.728C361.439 244.647 361.366 244.56 361.299 244.47C360.832 243.879 360.524 243.176 360.404 242.43C360.284 241.683 360.356 240.918 360.613 240.208C361.57 237.57 361.675 232.726 361.675 232.726C361.675 232.726 362.049 231.49 361.73 230.789C361.411 230.088 361.621 229.013 361.621 229.013C361.572 228.588 361.465 228.172 361.302 227.776C361.037 227.131 361.356 225.946 361.356 225.946C361.32 224.797 361.141 223.658 360.823 222.555C360.345 221.157 356.835 204.528 357.687 202.536C357.687 202.536 365.131 201.244 367.952 202.213L367.578 215.129C367.578 215.129 366.248 219.003 367.365 220.027C368.481 221.05 367.419 224.225 367.419 224.225C367.419 224.225 367.259 224.815 368.217 226.808C369.174 228.8 368.217 229.714 368.217 229.714V233.534C368.217 233.534 367.473 236.117 368.322 238.216C369.171 240.314 368.217 244.661 367.843 244.728Z" fill="#3F3D56"/>
<path d="M382.454 194.935C381.966 195.855 382.154 199.039 382.374 201.393C382.515 202.891 382.668 204.044 382.668 204.044C382.668 204.044 374.956 206.465 373.788 204.367C373.491 203.834 373.344 202.901 373.293 201.806C373.134 198.577 373.788 193.924 373.788 193.924C373.788 193.924 373.469 186.769 373.309 186.068C373.223 185.69 373.073 182.087 372.955 178.855C372.856 176.097 372.776 173.604 372.776 173.604L383.306 175.251C383.306 175.251 383.306 179.936 383.175 184.751C383.06 189.42 382.847 194.205 382.454 194.935Z" fill="#FBBEBE"/>
<path opacity="0.1" d="M382.668 204.044C382.668 204.044 374.956 206.465 373.788 204.367C373.491 203.834 373.344 202.901 373.293 201.806C374.889 201.561 379.745 200.883 382.374 201.393C382.515 202.891 382.668 204.044 382.668 204.044Z" fill="black"/>
<path d="M382.933 244.728H382.812C381.883 244.764 376.605 244.728 376.605 244.728C376.528 244.647 376.456 244.56 376.388 244.47C375.922 243.879 375.614 243.176 375.494 242.43C375.374 241.683 375.445 240.918 375.702 240.208C376.66 237.557 376.755 232.713 376.755 232.713C376.755 232.713 377.129 231.477 376.81 230.776C376.49 230.075 376.701 229 376.701 229C376.652 228.575 376.545 228.159 376.382 227.763C376.117 227.118 376.436 225.933 376.436 225.933C376.4 224.784 376.221 223.645 375.903 222.542C375.425 221.144 371.915 204.515 372.767 202.523C372.767 202.523 380.211 201.231 383.032 202.2L382.658 215.116C382.658 215.116 381.328 218.99 382.445 220.014C383.561 221.038 382.499 224.212 382.499 224.212C382.499 224.212 382.339 224.802 383.297 226.795C384.254 228.787 383.297 229.701 383.297 229.701V233.521C383.297 233.521 382.553 236.104 383.402 238.203C384.251 240.301 383.306 244.661 382.933 244.728Z" fill="#3F3D56"/>
<path opacity="0.1" d="M372.524 108.903C376.666 108.903 380.023 105.505 380.023 101.315C380.023 97.124 376.666 93.7267 372.524 93.7267C368.383 93.7267 365.026 97.124 365.026 101.315C365.026 105.505 368.383 108.903 372.524 108.903Z" fill="black"/>
<path d="M372.524 108.58C376.666 108.58 380.023 105.183 380.023 100.992C380.023 96.8011 376.666 93.4038 372.524 93.4038C368.383 93.4038 365.026 96.8011 365.026 100.992C365.026 105.183 368.383 108.58 372.524 108.58Z" fill="#FBBEBE"/>
<path opacity="0.1" d="M357.687 180.902L368.217 175.251C368.217 175.251 368.217 176.31 368.197 177.941C366.659 178.871 364.34 180.269 362.109 181.59C360.897 182.31 359.713 183.007 358.698 183.591C358.463 183.721 358.216 183.829 357.961 183.914C357.821 182.497 357.687 180.902 357.687 180.902Z" fill="black"/>
<path opacity="0.1" d="M383.306 175.238C383.306 175.238 383.306 179.923 383.175 184.738H383.137C382.35 184.766 381.562 184.741 380.779 184.663C379.404 184.515 378.303 184.147 377.907 183.417C377.106 181.996 374.863 180.188 372.968 178.842C372.869 176.084 372.789 173.591 372.789 173.591L383.306 175.238Z" fill="black"/>
<path d="M381.347 134.201C381.08 136.303 381.029 138.427 381.194 140.54C386.031 144.576 385.128 153.078 385.128 153.078C385.128 153.078 388.852 170.301 388.054 171.861C387.256 173.42 389.86 183 389.86 183C387.641 183.426 385.394 183.687 383.137 183.782C382.35 183.81 381.562 183.785 380.779 183.708C379.404 183.559 378.303 183.191 377.907 182.461C376.42 179.826 369.984 175.897 369.984 175.897C369.984 175.897 365.906 178.37 362.109 180.621C360.897 181.341 359.713 182.038 358.698 182.623C357.875 183.065 356.965 183.317 356.034 183.362C351.519 183.701 345.504 180.84 346.461 179.826C347.632 178.587 353.43 156.846 353.43 156.846C353.43 156.846 356.353 143.391 358.906 141.509C359.353 141.166 359.687 140.695 359.863 140.156C360.737 137.698 359.276 133.759 359.276 133.759C359.276 133.759 351.034 123.481 351.404 122.887C351.774 122.293 351.777 119.122 351.777 119.122C351.777 119.122 352.789 114.117 353.373 111.696C353.957 109.274 358.159 108.68 359.381 108.896C360.603 109.113 363.366 109.865 364.534 108.896C365.702 107.928 367.674 109.274 367.674 109.274L372.518 110.624L376.873 108.041C376.873 108.041 381.238 108.267 381.612 108.857C381.985 109.448 387.729 110.582 387.729 110.582C390.651 112.571 390.546 122.044 390.546 122.044C390.546 122.044 383.526 128.231 382.09 131.408C381.718 132.301 381.468 133.241 381.347 134.201V134.201Z" fill="#575A89"/>
<path d="M388.957 120.734L390.553 122.025L392.202 137.04L393.849 152.109C393.849 152.109 394.487 153.617 395.02 153.456C395.553 153.294 395.498 162.387 395.498 162.387C395.498 162.387 389.391 158.586 387.202 163.633L385.498 151.463C385.498 151.463 383.316 139.032 383.37 138.063C383.424 137.095 382.253 126.601 382.253 126.601L388.957 120.734Z" fill="#575A89"/>
<path d="M352.581 121.434L351.41 122.887C351.41 122.887 351.519 129.129 350.613 130.637C349.707 132.145 353.114 140.969 354.391 140.43C355.667 139.891 358.539 126.116 358.539 125.955C358.539 125.793 352.581 121.434 352.581 121.434Z" fill="#575A89"/>
<path d="M352.476 130.314C352.476 130.314 348.752 134.134 349.017 135.964C349.282 137.795 352.846 143.546 357.952 140.456C357.952 140.456 362.687 131.444 352.476 130.314Z" fill="#575A89"/>
<path opacity="0.1" d="M367.722 244.738C366.794 244.774 361.516 244.738 361.516 244.738C361.439 244.656 361.366 244.57 361.299 244.48C362.649 244.015 365.565 243.317 367.722 244.738Z" fill="black"/>
<path opacity="0.1" d="M382.818 244.738C381.889 244.774 376.612 244.738 376.612 244.738C376.535 244.656 376.462 244.57 376.395 244.48C377.738 244.015 380.655 243.317 382.818 244.738Z" fill="black"/>
<path opacity="0.1" d="M362.486 150.088C361.672 157.986 361.94 173.659 362.109 180.621C360.897 181.341 359.713 182.038 358.698 182.623C357.875 183.065 356.965 183.317 356.034 183.362C355.696 181.257 360.38 159.633 362.486 150.088Z" fill="black"/>
<path opacity="0.1" d="M363.481 145.606C363.459 145.719 363.073 147.437 362.486 150.088C362.716 147.824 363.035 146.2 363.481 145.606Z" fill="black"/>
<path opacity="0.1" d="M376.436 144.754C376.436 144.754 380.958 173.491 367.569 177.043C367.566 177.03 376.832 175.606 376.436 144.754Z" fill="black"/>
<path opacity="0.1" d="M383.137 183.782C382.35 183.81 381.563 183.785 380.779 183.708L377.167 144.415C379.471 145.939 382.228 173.824 383.137 183.782Z" fill="black"/>
<path opacity="0.1" d="M366.94 96.5293C367.18 96.5101 367.421 96.5352 367.652 96.6036C367.99 96.7744 368.295 97.0064 368.552 97.2881C368.968 97.64 369.465 97.8794 369.998 97.9839C370.53 98.0884 371.08 98.0545 371.596 97.8855C371.96 97.7209 372.346 97.6121 372.741 97.5626C373.351 97.5626 373.877 98.0146 374.193 98.5313C374.509 99.0479 374.672 99.6614 374.943 100.214C375.214 100.766 375.648 101.289 376.245 101.424C376.531 101.436 376.812 101.501 377.074 101.618C377.235 101.75 377.358 101.923 377.432 102.119C377.93 103.207 378.325 104.492 379.388 105.025C379.779 105.208 380.205 105.302 380.635 105.299C381.073 105.332 381.512 105.252 381.912 105.067C382.304 104.845 382.629 104.517 382.85 104.121C383.514 103.01 383.59 101.634 383.434 100.346C383.239 98.7207 382.667 97.1651 381.765 95.806C380.815 94.4315 379.521 93.337 378.016 92.6341C376.51 91.9312 374.848 91.6452 373.198 91.8054C372.621 91.8709 372.051 91.9788 371.49 92.1283C369.461 92.6772 367.47 93.704 366.238 95.425C365.94 95.8546 365.613 96.2625 365.259 96.6456C365.817 96.5907 366.379 96.5422 366.94 96.5293Z" fill="black"/>
<path d="M366.94 96.2065C367.18 96.1872 367.421 96.2123 367.652 96.2807C367.99 96.4515 368.295 96.6835 368.552 96.9653C368.968 97.3172 369.465 97.5565 369.998 97.661C370.53 97.7655 371.08 97.7316 371.596 97.5626C371.96 97.398 372.346 97.2892 372.741 97.2397C373.351 97.2397 373.877 97.6918 374.193 98.2084C374.509 98.725 374.672 99.3385 374.943 99.8907C375.214 100.443 375.648 100.966 376.245 101.102C376.531 101.113 376.812 101.179 377.074 101.295C377.235 101.427 377.358 101.6 377.432 101.796C377.93 102.884 378.325 104.169 379.388 104.702C379.779 104.885 380.205 104.979 380.635 104.976C381.073 105.009 381.512 104.929 381.912 104.744C382.304 104.522 382.629 104.194 382.85 103.798C383.514 102.687 383.59 101.311 383.434 100.023C383.239 98.3978 382.667 96.8422 381.765 95.4832C380.815 94.1087 379.521 93.0141 378.016 92.3112C376.51 91.6083 374.848 91.3223 373.198 91.4825C372.621 91.5481 372.051 91.656 371.49 91.8054C369.461 92.3543 367.47 93.3811 366.238 95.1022C365.94 95.5318 365.613 95.9396 365.259 96.3227C365.817 96.2678 366.379 96.2194 366.94 96.2065Z" fill="#3F3D56"/>
<path opacity="0.1" d="M358.804 114.276C358.804 114.276 359.177 117.291 357.901 118.044C356.624 118.796 358.804 114.276 358.804 114.276Z" fill="black"/>
<path opacity="0.1" d="M385.872 137.634C385.872 137.634 388.903 133.113 389.33 134.405C389.758 135.697 385.872 137.634 385.872 137.634Z" fill="black"/>
<path opacity="0.1" d="M386.085 139.139C386.085 139.139 389.075 135.425 389.362 136.878C389.65 138.331 386.085 139.139 386.085 139.139Z" fill="black"/>
<path opacity="0.1" d="M377.304 134.718C376.22 134.734 375.162 134.381 374.298 133.717H374.037C373.141 134.545 371.966 134.992 370.753 134.967C370.123 134.981 369.496 134.867 368.911 134.629C368.326 134.392 367.794 134.036 367.349 133.585H367.001C366.082 134.342 364.928 134.745 363.744 134.723C362.559 134.702 361.421 134.256 360.53 133.465L359.282 133.443C359.282 133.443 360.744 137.382 359.869 139.839L381.194 140.223C381.029 138.111 381.08 135.987 381.347 133.885V133.856L380.176 133.833C379.333 134.425 378.329 134.734 377.304 134.718Z" fill="black"/>
<path opacity="0.1" d="M377.304 135.364C376.22 135.379 375.162 135.027 374.298 134.363H374.037C373.141 135.191 371.966 135.638 370.753 135.613C370.123 135.627 369.496 135.513 368.911 135.275C368.326 135.037 367.794 134.682 367.349 134.231H367.001C366.082 134.988 364.928 135.391 363.744 135.369C362.559 135.347 361.421 134.902 360.53 134.111L359.282 134.089C359.282 134.089 360.744 138.028 359.869 140.485L381.194 140.869C381.029 138.757 381.08 136.633 381.347 134.531V134.502L380.176 134.479C379.333 135.07 378.329 135.38 377.304 135.364Z" fill="black"/>
<path d="M377.304 135.041C376.22 135.057 375.162 134.704 374.298 134.04H374.037C373.141 134.868 371.966 135.315 370.753 135.29C370.123 135.304 369.496 135.19 368.911 134.952C368.326 134.715 367.794 134.359 367.349 133.908H367.001C366.082 134.665 364.928 135.068 363.744 135.046C362.559 135.025 361.421 134.579 360.53 133.788L359.282 133.766C359.282 133.766 360.744 137.705 359.869 140.162L381.194 140.546C381.029 138.434 381.08 136.31 381.347 134.208V134.179L380.176 134.156C379.333 134.748 378.329 135.057 377.304 135.041V135.041Z" fill="#3F3D56"/>
<path opacity="0.1" d="M376.356 113.51C376.356 113.51 380.846 113.801 380.875 114.447C380.903 115.093 376.356 113.51 376.356 113.51Z" fill="black"/>
<path opacity="0.1" d="M365.45 110.756C365.45 110.756 360.961 111.047 360.932 111.692C360.903 112.338 365.45 110.756 365.45 110.756Z" fill="black"/>
<path opacity="0.1" d="M382.607 123.959C382.563 123.927 382.518 123.901 382.473 123.872C383.622 124.918 383.431 127.204 382.02 129.09C380.61 130.976 378.469 131.76 377.167 130.914C377.208 130.95 377.244 130.989 377.288 131.024C378.565 132.012 380.798 131.237 382.272 129.287C383.747 127.337 383.89 124.951 382.607 123.959Z" fill="black"/>
<path opacity="0.1" d="M357.945 128.848C356.809 126.775 356.956 124.486 358.242 123.617C358.194 123.64 358.143 123.659 358.095 123.685C356.685 124.479 356.5 126.859 357.668 129.003C358.836 131.147 360.941 132.232 362.352 131.45C362.398 131.423 362.443 131.393 362.486 131.36C361.079 132.006 359.081 130.921 357.945 128.848Z" fill="black"/>
<path opacity="0.1" d="M359.464 111.366L359.053 112.012L358.003 111.447L358.555 110.588C358.92 110.763 359.233 111.031 359.464 111.366V111.366Z" fill="black"/>
<path d="M352.795 135.264C352.795 135.264 353.73 130.814 352.476 129.4C351.222 127.986 351.624 120.572 353.539 120.734C355.453 120.895 358.325 126.759 357.846 127.999C357.368 129.239 355.559 135.587 355.559 135.587L352.795 135.264Z" fill="#FBBEBE"/>
<path opacity="0.1" d="M382.818 103.162C382.597 103.558 382.273 103.886 381.88 104.108C381.48 104.293 381.041 104.373 380.603 104.34C380.173 104.343 379.747 104.249 379.356 104.066C378.293 103.53 377.898 102.245 377.4 101.16C377.337 100.964 377.225 100.788 377.074 100.65C376.816 100.531 376.538 100.462 376.254 100.446C375.658 100.31 375.227 99.7841 374.952 99.2352C374.678 98.6863 374.515 98.0793 374.203 97.5529C373.89 97.0266 373.36 96.5649 372.751 96.5843C372.354 96.6375 371.968 96.7518 371.605 96.9233C371.089 97.0909 370.539 97.1238 370.007 97.0188C369.475 96.9138 368.977 96.6744 368.561 96.3227C368.305 96.0409 368 95.809 367.661 95.6382C367.431 95.5698 367.19 95.5446 366.95 95.5639C366.583 95.5639 366.219 95.5994 365.852 95.6285C365.671 95.8697 365.476 96.1004 365.268 96.3195C365.827 96.271 366.388 96.2226 366.95 96.2097C367.19 96.1904 367.431 96.2156 367.661 96.284C368 96.4547 368.305 96.6867 368.561 96.9685C368.977 97.3201 369.475 97.5596 370.007 97.6646C370.539 97.7696 371.089 97.7367 371.605 97.5691C371.968 97.3976 372.354 97.2832 372.751 97.23C373.36 97.23 373.887 97.6821 374.203 98.1987C374.519 98.7154 374.681 99.3289 374.952 99.881C375.224 100.433 375.658 100.956 376.254 101.092C376.538 101.107 376.816 101.176 377.074 101.295C377.235 101.427 377.358 101.6 377.432 101.796C377.93 102.884 378.325 104.169 379.388 104.702C379.779 104.885 380.205 104.979 380.635 104.976C381.073 105.009 381.512 104.929 381.912 104.744C382.304 104.522 382.629 104.194 382.85 103.798C383.345 102.885 383.567 101.846 383.488 100.808C383.464 101.637 383.233 102.446 382.818 103.162V103.162Z" fill="black"/>
<path d="M354.209 138.793C355.795 138.793 357.081 137.911 357.081 136.823C357.081 135.736 355.795 134.854 354.209 134.854C352.623 134.854 351.337 135.736 351.337 136.823C351.337 137.911 352.623 138.793 354.209 138.793Z" fill="#575A89"/>
<path d="M260.602 246.462C314.968 246.462 359.04 201.864 359.04 146.849C359.04 91.8346 314.968 47.2363 260.602 47.2363C206.236 47.2363 162.164 91.8346 162.164 146.849C162.164 201.864 206.236 246.462 260.602 246.462Z" fill="#3DB2FF"/>
<path d="M312.252 196.908C312.252 212.633 287.823 198.251 261.633 198.251C235.442 198.251 208.952 212.038 208.952 196.314C208.952 187.347 217.395 174.877 229.507 165.819C238.633 158.993 249.839 154.105 261.097 154.105C272.673 154.105 284.013 159.397 293.059 166.662C304.476 175.823 312.252 188.131 312.252 196.908Z" fill="#444053"/>
<path d="M293.056 166.656C279.134 164.534 253.955 161.948 229.507 165.813C238.633 158.987 249.839 154.098 261.096 154.098C272.67 154.098 284.01 159.39 293.056 166.656Z" fill="#F6F8FB"/>
<path opacity="0.05" d="M208.952 76.5325C208.952 76.5325 179.299 95.7156 179.542 125.722C179.784 155.729 208.952 76.5325 208.952 76.5325Z" fill="black"/>
<path d="M359.001 22.3541C359.001 22.3541 332.134 20.717 335.303 39.7678C335.303 39.7678 334.665 43.1323 337.69 44.6629C337.69 44.6629 337.738 43.2518 340.443 43.7297C341.408 43.8929 342.388 43.9406 343.363 43.8718C344.681 43.7811 345.934 43.2573 346.93 42.38V42.38C346.93 42.38 354.483 39.2253 357.422 26.7325C357.422 26.7325 359.595 24.0073 359.509 23.3098L354.975 25.2666C354.975 25.2666 356.522 28.5762 355.294 31.3273C355.294 31.3273 355.147 25.3893 354.276 25.5152C354.1 25.5443 351.921 26.6615 351.921 26.6615C351.921 26.6615 354.585 32.4284 352.559 36.6163C352.559 36.6163 353.322 29.5126 351.072 27.078L347.881 28.9637C347.881 28.9637 350.996 34.9179 348.883 39.7775C348.883 39.7775 349.426 32.3251 347.211 29.4222L344.317 31.7051C344.317 31.7051 347.243 37.5753 345.459 41.605C345.459 41.605 345.227 32.9289 343.692 32.2734C343.692 32.2734 341.161 34.5337 340.775 35.4604C340.775 35.4604 342.779 39.7193 341.538 41.9667C341.538 41.9667 340.775 36.1869 340.15 36.1546C340.15 36.1546 337.629 39.9841 337.364 42.6125C337.364 42.6125 337.476 38.7055 339.537 35.7897C339.537 35.7897 337.099 36.2127 335.679 37.8143C335.679 37.8143 336.072 35.1052 340.147 34.8695C340.147 34.8695 342.23 31.9634 342.789 31.789C342.789 31.789 338.72 31.4435 336.254 32.5511C336.254 32.5511 338.424 29.997 343.532 31.1562L346.404 28.799C346.404 28.799 341.05 28.0564 338.778 28.8765C338.778 28.8765 341.391 26.6163 347.173 28.263L350.284 26.3806C350.284 26.3806 345.718 25.386 342.996 25.7348C342.996 25.7348 345.868 24.1687 351.193 25.8672L353.427 24.8565C353.427 24.8565 350.08 24.1913 349.1 24.088C348.121 23.9847 348.07 23.707 348.07 23.707C350.195 23.3573 352.375 23.6133 354.365 24.4464C354.365 24.4464 359.081 22.6544 359.001 22.3541Z" fill="#3DB2FF"/>
<path d="M331.445 13.8845C331.445 13.8845 319.32 13.1418 320.737 21.7502C320.737 21.7502 320.453 23.271 321.815 23.962C321.815 23.962 321.834 23.3162 323.06 23.5423C323.495 23.6148 323.937 23.6364 324.378 23.6069C324.974 23.5638 325.54 23.3271 325.992 22.932V22.932C325.992 22.932 329.403 21.5048 330.731 15.8606C330.731 15.8606 331.713 14.6304 331.688 14.3139L329.639 15.1987C329.639 15.1987 330.341 16.6937 329.789 17.9368C329.789 17.9368 329.722 15.2536 329.33 15.3181C329.25 15.3181 328.264 15.8348 328.264 15.8348C328.264 15.8348 329.47 18.4405 328.561 20.3327C328.561 20.3327 328.905 17.1231 327.891 16.0221L326.448 16.8745C326.448 16.8745 327.856 19.5674 326.902 21.7631C326.902 21.7631 327.144 18.3953 326.145 17.0844L324.837 18.1144C324.837 18.1144 326.158 20.7654 325.354 22.5865C325.354 22.5865 325.249 18.6666 324.553 18.3695C324.553 18.3695 323.411 19.3898 323.235 19.8096C323.235 19.8096 324.141 21.747 323.58 22.7512C323.58 22.7512 323.235 20.139 322.942 20.1293C322.942 20.1293 321.803 21.8568 321.685 23.0353C321.739 21.9385 322.077 20.8754 322.664 19.9517C322.008 20.0774 321.402 20.3951 320.922 20.8655C320.922 20.8655 321.097 19.6417 322.945 19.5351C322.945 19.5351 323.886 18.2242 324.138 18.1435C324.138 18.1435 322.3 17.9885 321.187 18.489C321.187 18.489 322.166 17.333 324.476 17.8432L325.753 16.7809C325.753 16.7809 323.334 16.458 322.307 16.8131C322.307 16.8131 323.487 15.7928 326.101 16.5387L327.505 15.6862C327.505 15.6862 325.443 15.2374 324.212 15.3989C324.212 15.3989 325.51 14.6917 327.916 15.4602L328.921 15.0017C328.921 15.0017 327.409 14.7014 326.969 14.6562C326.528 14.611 326.499 14.4851 326.499 14.4851C327.457 14.3238 328.441 14.4356 329.339 14.808C329.339 14.808 331.48 14.0201 331.445 13.8845Z" fill="#3DB2FF"/>
<path opacity="0.1" d="M437.407 235.716C442.153 235.716 446 235.059 446 234.247C446 233.436 442.153 232.778 437.407 232.778C432.661 232.778 428.814 233.436 428.814 234.247C428.814 235.059 432.661 235.716 437.407 235.716Z" fill="#3DB2FF"/>
<path opacity="0.1" d="M109.924 260.156C114.669 260.156 118.516 259.499 118.516 258.687C118.516 257.876 114.669 257.218 109.924 257.218C105.178 257.218 101.331 257.876 101.331 258.687C101.331 259.499 105.178 260.156 109.924 260.156Z" fill="#3DB2FF"/>
<path opacity="0.1" d="M159.806 262C164.552 262 168.399 261.342 168.399 260.531C168.399 259.719 164.552 259.062 159.806 259.062C155.06 259.062 151.213 259.719 151.213 260.531C151.213 261.342 155.06 262 159.806 262Z" fill="#3DB2FF"/>
<path d="M418.6 252.187C425.686 252.187 431.431 251.204 431.431 249.992C431.431 248.779 425.686 247.796 418.6 247.796C411.514 247.796 405.77 248.779 405.77 249.992C405.77 251.204 411.514 252.187 418.6 252.187Z" fill="#3DB2FF"/>
<path d="M423.903 246.404C424.489 245.92 424.916 245.269 425.129 244.535C425.285 243.795 424.972 242.904 424.274 242.633C423.489 242.329 422.649 242.881 422.014 243.437C421.379 243.992 420.649 244.625 419.816 244.509C420.244 244.116 420.565 243.618 420.746 243.063C420.927 242.508 420.963 241.915 420.85 241.341C420.813 241.104 420.714 240.88 420.563 240.695C420.125 240.224 419.337 240.424 418.814 240.795C417.155 241.977 416.692 244.257 416.682 246.311C416.516 245.571 416.657 244.799 416.654 244.05C416.651 243.301 416.443 242.436 415.811 242.039C415.419 241.827 414.979 241.722 414.535 241.735C413.788 241.706 412.959 241.78 412.448 242.332C411.81 243.02 411.979 244.17 412.531 244.916C413.083 245.661 413.919 246.146 414.688 246.666C415.307 247.038 415.835 247.547 416.232 248.154C416.279 248.24 416.317 248.329 416.347 248.422H421.022C422.068 247.884 423.037 247.205 423.903 246.404V246.404Z" fill="#3DB2FF"/>
<path d="M113.935 219.329C113.935 219.329 115.686 221.648 113.124 225.142C110.562 228.635 108.45 231.599 109.295 233.782C109.295 233.782 113.159 227.279 116.315 227.185C119.471 227.092 117.393 223.24 113.935 219.329Z" fill="#3DB2FF"/>
<path opacity="0.1" d="M113.935 219.329C114.087 219.554 114.207 219.798 114.292 220.056C117.362 223.705 118.995 227.111 116.047 227.195C113.296 227.276 109.984 232.248 109.209 233.505C109.236 233.602 109.268 233.698 109.305 233.792C109.305 233.792 113.169 227.289 116.325 227.195C119.48 227.102 117.394 223.24 113.935 219.329Z" fill="black"/>
<path d="M117.192 222.284C117.192 223.101 117.1 223.763 116.988 223.763C116.876 223.763 116.787 223.117 116.787 222.284C116.787 221.451 116.899 221.851 117.014 221.851C117.129 221.851 117.192 221.467 117.192 222.284Z" fill="#FFD037"/>
<path d="M118.296 223.259C117.588 223.65 116.972 223.885 116.918 223.785C116.864 223.685 117.397 223.291 118.105 222.901C118.813 222.51 118.533 222.794 118.587 222.901C118.641 223.007 119.018 222.868 118.296 223.259Z" fill="#FFD037"/>
<path d="M104.675 219.329C104.675 219.329 102.923 221.648 105.482 225.142C108.041 228.635 110.156 231.599 109.311 233.782C109.311 233.782 105.444 227.279 102.291 227.185C99.1385 227.092 101.213 223.24 104.675 219.329Z" fill="#3DB2FF"/>
<path opacity="0.1" d="M104.675 219.329C104.521 219.553 104.401 219.797 104.317 220.056C101.248 223.705 99.6107 227.111 102.562 227.195C105.31 227.276 108.625 232.248 109.397 233.505C109.371 233.602 109.34 233.698 109.305 233.792C109.305 233.792 105.437 227.289 102.285 227.195C99.1321 227.102 101.213 223.24 104.675 219.329Z" fill="black"/>
<path d="M101.417 222.284C101.417 223.101 101.506 223.763 101.618 223.763C101.729 223.763 101.819 223.117 101.819 222.284C101.819 221.451 101.707 221.851 101.595 221.851C101.484 221.851 101.417 221.467 101.417 222.284Z" fill="#FFD037"/>
<path d="M100.297 223.259C101.005 223.65 101.624 223.885 101.679 223.785C101.733 223.685 101.2 223.291 100.492 222.901C99.7831 222.51 100.061 222.794 100.01 222.901C99.9586 223.007 99.5885 222.868 100.297 223.259Z" fill="#FFD037"/>
<path d="M101.975 233.488C101.975 233.488 106.876 233.337 108.357 232.271C109.838 231.206 115.897 229.937 116.264 231.625C116.631 233.314 123.628 240.117 118.096 240.163C112.563 240.208 105.24 239.288 103.765 238.38C102.291 237.473 101.975 233.488 101.975 233.488Z" fill="#A8A8A8"/>
<path opacity="0.2" d="M118.188 239.585C112.655 239.63 105.332 238.71 103.858 237.802C102.735 237.111 102.288 234.628 102.138 233.482H101.975C101.975 233.482 102.294 237.483 103.759 238.39C105.224 239.297 112.556 240.218 118.089 240.172C119.685 240.172 120.237 239.581 120.208 238.732C119.985 239.252 119.378 239.575 118.188 239.585Z" fill="black"/>
<path d="M225.605 133.788C227.478 133.682 236.294 133.01 241.894 129.778C242.793 129.242 243.809 128.94 244.852 128.896C246.632 128.845 248.681 129.597 247.37 133.808C245.244 140.695 232.905 148.444 225.247 148.015C217.883 147.602 209.146 144.599 203.377 134.04C202.825 133.024 202.552 131.877 202.589 130.717C202.656 128.586 203.422 125.916 207.375 128.893C212.717 132.913 222.851 133.675 224.884 133.788C225.124 133.801 225.365 133.801 225.605 133.788V133.788Z" fill="#444053"/>
<path d="M296.442 133.788C298.315 133.682 307.131 133.01 312.731 129.778C313.63 129.242 314.646 128.94 315.689 128.896C317.469 128.845 319.518 129.597 318.206 133.808C316.081 140.695 303.742 148.444 296.084 148.015C288.72 147.602 279.983 144.599 274.214 134.04C273.661 133.024 273.389 131.877 273.426 130.717C273.493 128.586 274.259 125.916 278.212 128.893C283.554 132.913 293.688 133.675 295.72 133.788C295.961 133.801 296.201 133.801 296.442 133.788V133.788Z" fill="#444053"/>
</g>
<path d="M196.707 335.184C196.707 339.895 195.887 344.031 194.246 347.594C192.629 351.156 190.309 353.898 187.285 355.82C184.262 357.742 180.77 358.703 176.809 358.703C170.832 358.703 166.004 356.57 162.324 352.305C158.645 348.016 156.805 342.238 156.805 334.973V329.699C156.805 325.035 157.625 320.91 159.266 317.324C160.93 313.715 163.273 310.949 166.297 309.027C169.32 307.082 172.801 306.109 176.738 306.109C180.676 306.109 184.145 307.059 187.145 308.957C190.168 310.855 192.5 313.539 194.141 317.008C195.781 320.477 196.637 324.496 196.707 329.066V335.184ZM192.383 329.629C192.383 323.465 190.988 318.637 188.199 315.145C185.41 311.652 181.59 309.906 176.738 309.906C171.98 309.906 168.184 311.664 165.348 315.18C162.535 318.672 161.129 323.559 161.129 329.84V335.184C161.129 341.254 162.535 346.07 165.348 349.633C168.16 353.172 171.98 354.941 176.809 354.941C181.707 354.941 185.527 353.195 188.27 349.703C191.012 346.188 192.383 341.301 192.383 335.043V329.629ZM245.434 335.184C245.434 339.895 244.613 344.031 242.973 347.594C241.355 351.156 239.035 353.898 236.012 355.82C232.988 357.742 229.496 358.703 225.535 358.703C219.559 358.703 214.73 356.57 211.051 352.305C207.371 348.016 205.531 342.238 205.531 334.973V329.699C205.531 325.035 206.352 320.91 207.992 317.324C209.656 313.715 212 310.949 215.023 309.027C218.047 307.082 221.527 306.109 225.465 306.109C229.402 306.109 232.871 307.059 235.871 308.957C238.895 310.855 241.227 313.539 242.867 317.008C244.508 320.477 245.363 324.496 245.434 329.066V335.184ZM241.109 329.629C241.109 323.465 239.715 318.637 236.926 315.145C234.137 311.652 230.316 309.906 225.465 309.906C220.707 309.906 216.91 311.664 214.074 315.18C211.262 318.672 209.855 323.559 209.855 329.84V335.184C209.855 341.254 211.262 346.07 214.074 349.633C216.887 353.172 220.707 354.941 225.535 354.941C230.434 354.941 234.254 353.195 236.996 349.703C239.738 346.188 241.109 341.301 241.109 335.043V329.629ZM260.656 337.152V358H256.332V306.812H273.77C279.09 306.812 283.285 308.172 286.355 310.891C289.449 313.609 290.996 317.348 290.996 322.105C290.996 326.91 289.508 330.625 286.531 333.25C283.578 335.852 279.289 337.152 273.664 337.152H260.656ZM260.656 333.496H273.77C277.965 333.496 281.164 332.5 283.367 330.508C285.57 328.516 286.672 325.738 286.672 322.176C286.672 318.637 285.57 315.824 283.367 313.738C281.188 311.629 278.082 310.551 274.051 310.504H260.656V333.496ZM329.668 345.414C329.668 342.578 328.672 340.34 326.68 338.699C324.688 337.035 321.043 335.465 315.746 333.988C310.449 332.488 306.582 330.859 304.145 329.102C300.676 326.617 298.941 323.359 298.941 319.328C298.941 315.414 300.547 312.238 303.758 309.801C306.992 307.34 311.117 306.109 316.133 306.109C319.531 306.109 322.566 306.766 325.238 308.078C327.934 309.391 330.02 311.219 331.496 313.562C332.973 315.906 333.711 318.52 333.711 321.402H329.352C329.352 317.91 328.156 315.109 325.766 313C323.375 310.867 320.164 309.801 316.133 309.801C312.219 309.801 309.102 310.68 306.781 312.438C304.461 314.172 303.301 316.445 303.301 319.258C303.301 321.859 304.344 323.98 306.43 325.621C308.516 327.262 311.855 328.715 316.449 329.98C321.043 331.223 324.523 332.523 326.891 333.883C329.258 335.219 331.039 336.824 332.234 338.699C333.43 340.574 334.027 342.789 334.027 345.344C334.027 349.375 332.41 352.609 329.176 355.047C325.965 357.484 321.723 358.703 316.449 358.703C312.84 358.703 309.523 358.059 306.5 356.77C303.5 355.48 301.215 353.676 299.645 351.355C298.098 349.035 297.324 346.375 297.324 343.375H301.648C301.648 346.984 302.996 349.832 305.691 351.918C308.387 354.004 311.973 355.047 316.449 355.047C320.434 355.047 323.633 354.168 326.047 352.41C328.461 350.652 329.668 348.32 329.668 345.414ZM342.008 355.469C342.008 354.648 342.266 353.957 342.781 353.395C343.32 352.809 344.059 352.516 344.996 352.516C345.934 352.516 346.672 352.809 347.211 353.395C347.75 353.957 348.02 354.648 348.02 355.469C348.02 356.289 347.75 356.969 347.211 357.508C346.672 358.023 345.934 358.281 344.996 358.281C344.059 358.281 343.32 358.023 342.781 357.508C342.266 356.969 342.008 356.289 342.008 355.469ZM359.234 355.469C359.234 354.648 359.492 353.957 360.008 353.395C360.547 352.809 361.285 352.516 362.223 352.516C363.16 352.516 363.898 352.809 364.438 353.395C364.977 353.957 365.246 354.648 365.246 355.469C365.246 356.289 364.977 356.969 364.438 357.508C363.898 358.023 363.16 358.281 362.223 358.281C361.285 358.281 360.547 358.023 360.008 357.508C359.492 356.969 359.234 356.289 359.234 355.469ZM376.461 355.469C376.461 354.648 376.719 353.957 377.234 353.395C377.773 352.809 378.512 352.516 379.449 352.516C380.387 352.516 381.125 352.809 381.664 353.395C382.203 353.957 382.473 354.648 382.473 355.469C382.473 356.289 382.203 356.969 381.664 357.508C381.125 358.023 380.387 358.281 379.449 358.281C378.512 358.281 377.773 358.023 377.234 357.508C376.719 356.969 376.461 356.289 376.461 355.469ZM97.0039 380.68C96.8086 382.477 96.1641 383.852 95.0703 384.805C93.9844 385.758 92.5352 386.234 90.7227 386.234C89.457 386.234 88.3359 385.918 87.3594 385.285C86.3906 384.652 85.6406 383.758 85.1094 382.602C84.5781 381.438 84.3086 380.109 84.3008 378.617V376.402C84.3008 374.887 84.5664 373.543 85.0977 372.371C85.6289 371.199 86.3906 370.297 87.3828 369.664C88.3828 369.023 89.5312 368.703 90.8281 368.703C92.6562 368.703 94.0977 369.199 95.1523 370.191C96.2148 371.176 96.832 372.539 97.0039 374.281H95.5508C95.1914 371.383 93.6172 369.934 90.8281 369.934C89.2812 369.934 88.0469 370.512 87.125 371.668C86.2109 372.824 85.7539 374.422 85.7539 376.461V378.547C85.7539 380.516 86.1992 382.086 87.0898 383.258C87.9883 384.43 89.1992 385.016 90.7227 385.016C92.2305 385.016 93.3672 384.656 94.1328 383.938C94.8984 383.211 95.3711 382.125 95.5508 380.68H97.0039ZM101.574 375.465C102.035 374.707 102.625 374.121 103.344 373.707C104.062 373.293 104.848 373.086 105.699 373.086C107.059 373.086 108.07 373.469 108.734 374.234C109.398 375 109.734 376.148 109.742 377.68V386H108.348V377.668C108.34 376.535 108.098 375.691 107.621 375.137C107.152 374.582 106.398 374.305 105.359 374.305C104.492 374.305 103.723 374.578 103.051 375.125C102.387 375.664 101.895 376.395 101.574 377.316V386H100.18V368H101.574V375.465ZM126.066 372.184C126.066 373.465 125.809 374.387 125.293 374.949C124.785 375.512 123.984 375.812 122.891 375.852V386H121.531L121.508 384.395C120.664 385.621 119.316 386.234 117.465 386.234C116.113 386.234 115.086 385.844 114.383 385.062C113.68 384.273 113.32 383.109 113.305 381.57V373.32H114.699V381.395C114.699 383.809 115.676 385.016 117.629 385.016C119.66 385.016 120.945 384.176 121.484 382.496V373.32H122.891V374.879C123.867 374.832 124.477 374.492 124.719 373.859C124.844 373.539 124.906 372.98 124.906 372.184H126.066ZM135.418 386C135.277 385.602 135.188 385.012 135.148 384.23C134.656 384.871 134.027 385.367 133.262 385.719C132.504 386.062 131.699 386.234 130.848 386.234C129.629 386.234 128.641 385.895 127.883 385.215C127.133 384.535 126.758 383.676 126.758 382.637C126.758 381.402 127.27 380.426 128.293 379.707C129.324 378.988 130.758 378.629 132.594 378.629H135.137V377.188C135.137 376.281 134.855 375.57 134.293 375.055C133.738 374.531 132.926 374.27 131.855 374.27C130.879 374.27 130.07 374.52 129.43 375.02C128.789 375.52 128.469 376.121 128.469 376.824L127.062 376.812C127.062 375.805 127.531 374.934 128.469 374.199C129.406 373.457 130.559 373.086 131.926 373.086C133.34 373.086 134.453 373.441 135.266 374.152C136.086 374.855 136.508 375.84 136.531 377.105V383.105C136.531 384.332 136.66 385.25 136.918 385.859V386H135.418ZM131.012 384.992C131.949 384.992 132.785 384.766 133.52 384.312C134.262 383.859 134.801 383.254 135.137 382.496V379.707H132.629C131.23 379.723 130.137 379.98 129.348 380.48C128.559 380.973 128.164 381.652 128.164 382.52C128.164 383.23 128.426 383.82 128.949 384.289C129.48 384.758 130.168 384.992 131.012 384.992ZM150.805 385.051C151.781 385.051 152.598 384.777 153.254 384.23C153.918 383.676 154.277 382.961 154.332 382.086H155.68C155.641 382.859 155.398 383.566 154.953 384.207C154.508 384.84 153.914 385.336 153.172 385.695C152.438 386.055 151.648 386.234 150.805 386.234C149.141 386.234 147.82 385.656 146.844 384.5C145.875 383.344 145.391 381.789 145.391 379.836V379.414C145.391 378.164 145.609 377.059 146.047 376.098C146.484 375.137 147.109 374.395 147.922 373.871C148.742 373.348 149.699 373.086 150.793 373.086C152.184 373.086 153.328 373.5 154.227 374.328C155.133 375.156 155.617 376.246 155.68 377.598H154.332C154.27 376.605 153.91 375.805 153.254 375.195C152.605 374.586 151.785 374.281 150.793 374.281C149.527 374.281 148.543 374.738 147.84 375.652C147.145 376.566 146.797 377.848 146.797 379.496V379.906C146.797 381.523 147.145 382.785 147.84 383.691C148.543 384.598 149.531 385.051 150.805 385.051ZM157.719 379.473C157.719 378.254 157.953 377.156 158.422 376.18C158.898 375.203 159.566 374.445 160.426 373.906C161.293 373.359 162.273 373.086 163.367 373.086C165.055 373.086 166.422 373.68 167.469 374.867C168.516 376.047 169.039 377.613 169.039 379.566V379.859C169.039 381.086 168.801 382.191 168.324 383.176C167.855 384.152 167.191 384.906 166.332 385.438C165.473 385.969 164.492 386.234 163.391 386.234C161.711 386.234 160.344 385.645 159.289 384.465C158.242 383.277 157.719 381.707 157.719 379.754V379.473ZM159.125 379.859C159.125 381.375 159.516 382.621 160.297 383.598C161.086 384.566 162.117 385.051 163.391 385.051C164.656 385.051 165.68 384.566 166.461 383.598C167.25 382.621 167.645 381.336 167.645 379.742V379.473C167.645 378.504 167.465 377.617 167.105 376.812C166.746 376.008 166.242 375.387 165.594 374.949C164.945 374.504 164.203 374.281 163.367 374.281C162.117 374.281 161.098 374.773 160.309 375.758C159.52 376.734 159.125 378.016 159.125 379.602V379.859ZM164.762 368H166.461L163.754 371.281H162.523L164.762 368ZM185.375 382.777C185.375 382.082 185.094 381.523 184.531 381.102C183.977 380.68 183.137 380.352 182.012 380.117C180.887 379.875 180.012 379.602 179.387 379.297C178.77 378.984 178.309 378.605 178.004 378.16C177.707 377.715 177.559 377.176 177.559 376.543C177.559 375.543 177.977 374.719 178.812 374.07C179.648 373.414 180.719 373.086 182.023 373.086C183.438 373.086 184.57 373.438 185.422 374.141C186.281 374.836 186.711 375.746 186.711 376.871H185.305C185.305 376.129 184.992 375.512 184.367 375.02C183.75 374.527 182.969 374.281 182.023 374.281C181.102 374.281 180.359 374.488 179.797 374.902C179.242 375.309 178.965 375.84 178.965 376.496C178.965 377.129 179.195 377.621 179.656 377.973C180.125 378.316 180.973 378.633 182.199 378.922C183.434 379.211 184.355 379.52 184.965 379.848C185.582 380.176 186.039 380.57 186.336 381.031C186.633 381.492 186.781 382.051 186.781 382.707C186.781 383.777 186.348 384.633 185.48 385.273C184.621 385.914 183.496 386.234 182.105 386.234C180.629 386.234 179.43 385.879 178.508 385.168C177.594 384.449 177.137 383.543 177.137 382.449H178.543C178.598 383.27 178.941 383.91 179.574 384.371C180.215 384.824 181.059 385.051 182.105 385.051C183.082 385.051 183.871 384.836 184.473 384.406C185.074 383.977 185.375 383.434 185.375 382.777ZM191.516 386H190.109V373.32H191.516V386ZM189.863 369.652C189.863 369.387 189.949 369.164 190.121 368.984C190.293 368.797 190.527 368.703 190.824 368.703C191.121 368.703 191.355 368.797 191.527 368.984C191.707 369.164 191.797 369.387 191.797 369.652C191.797 369.918 191.707 370.141 191.527 370.32C191.355 370.5 191.121 370.59 190.824 370.59C190.527 370.59 190.293 370.5 190.121 370.32C189.949 370.141 189.863 369.918 189.863 369.652ZM196.672 373.32L196.719 375.488C197.195 374.707 197.789 374.113 198.5 373.707C199.211 373.293 199.996 373.086 200.855 373.086C202.215 373.086 203.227 373.469 203.891 374.234C204.555 375 204.891 376.148 204.898 377.68V386H203.504V377.668C203.496 376.535 203.254 375.691 202.777 375.137C202.309 374.582 201.555 374.305 200.516 374.305C199.648 374.305 198.879 374.578 198.207 375.125C197.543 375.664 197.051 376.395 196.73 377.316V386H195.336V373.32H196.672ZM209.926 375.465C210.387 374.707 210.977 374.121 211.695 373.707C212.414 373.293 213.199 373.086 214.051 373.086C215.41 373.086 216.422 373.469 217.086 374.234C217.75 375 218.086 376.148 218.094 377.68V386H216.699V377.668C216.691 376.535 216.449 375.691 215.973 375.137C215.504 374.582 214.75 374.305 213.711 374.305C212.844 374.305 212.074 374.578 211.402 375.125C210.738 375.664 210.246 376.395 209.926 377.316V386H208.531V368H209.926V375.465ZM231.488 384.066L235.344 373.32H236.785L232.051 386H230.914L226.156 373.32H227.598L231.488 384.066ZM240.664 386H239.258V373.32H240.664V386ZM239.012 369.652C239.012 369.387 239.098 369.164 239.27 368.984C239.441 368.797 239.676 368.703 239.973 368.703C240.27 368.703 240.504 368.797 240.676 368.984C240.855 369.164 240.945 369.387 240.945 369.652C240.945 369.918 240.855 370.141 240.676 370.32C240.504 370.5 240.27 370.59 239.973 370.59C239.676 370.59 239.441 370.5 239.27 370.32C239.098 370.141 239.012 369.918 239.012 369.652ZM249.395 386.234C248.316 386.234 247.34 385.969 246.465 385.438C245.598 384.906 244.922 384.168 244.438 383.223C243.953 382.27 243.711 381.203 243.711 380.023V379.52C243.711 378.301 243.945 377.203 244.414 376.227C244.891 375.25 245.551 374.484 246.395 373.93C247.238 373.367 248.152 373.086 249.137 373.086C250.676 373.086 251.895 373.613 252.793 374.668C253.699 375.715 254.152 377.148 254.152 378.969V379.754H245.105V380.023C245.105 381.461 245.516 382.66 246.336 383.621C247.164 384.574 248.203 385.051 249.453 385.051C250.203 385.051 250.863 384.914 251.434 384.641C252.012 384.367 252.535 383.93 253.004 383.328L253.883 383.996C252.852 385.488 251.355 386.234 249.395 386.234ZM249.137 374.281C248.082 374.281 247.191 374.668 246.465 375.441C245.746 376.215 245.309 377.254 245.152 378.559H252.758V378.406C252.719 377.188 252.371 376.195 251.715 375.43C251.059 374.664 250.199 374.281 249.137 374.281ZM252.559 371.141V371.258H251.258L249.289 369.113L247.332 371.258H246.055V371.105L248.844 368.117H249.734L252.559 371.141ZM258.219 373.32L258.266 375.488C258.742 374.707 259.336 374.113 260.047 373.707C260.758 373.293 261.543 373.086 262.402 373.086C263.762 373.086 264.773 373.469 265.438 374.234C266.102 375 266.438 376.148 266.445 377.68V386H265.051V377.668C265.043 376.535 264.801 375.691 264.324 375.137C263.855 374.582 263.102 374.305 262.062 374.305C261.195 374.305 260.426 374.578 259.754 375.125C259.09 375.664 258.598 376.395 258.277 377.316V386H256.883V373.32H258.219ZM277.25 373.32L277.297 375.488C277.773 374.707 278.367 374.113 279.078 373.707C279.789 373.293 280.574 373.086 281.434 373.086C282.793 373.086 283.805 373.469 284.469 374.234C285.133 375 285.469 376.148 285.477 377.68V386H284.082V377.668C284.074 376.535 283.832 375.691 283.355 375.137C282.887 374.582 282.133 374.305 281.094 374.305C280.227 374.305 279.457 374.578 278.785 375.125C278.121 375.664 277.629 376.395 277.309 377.316V386H275.914V373.32H277.25ZM297.113 386C296.973 385.602 296.883 385.012 296.844 384.23C296.352 384.871 295.723 385.367 294.957 385.719C294.199 386.062 293.395 386.234 292.543 386.234C291.324 386.234 290.336 385.895 289.578 385.215C288.828 384.535 288.453 383.676 288.453 382.637C288.453 381.402 288.965 380.426 289.988 379.707C291.02 378.988 292.453 378.629 294.289 378.629H296.832V377.188C296.832 376.281 296.551 375.57 295.988 375.055C295.434 374.531 294.621 374.27 293.551 374.27C292.574 374.27 291.766 374.52 291.125 375.02C290.484 375.52 290.164 376.121 290.164 376.824L288.758 376.812C288.758 375.805 289.227 374.934 290.164 374.199C291.102 373.457 292.254 373.086 293.621 373.086C295.035 373.086 296.148 373.441 296.961 374.152C297.781 374.855 298.203 375.84 298.227 377.105V383.105C298.227 384.332 298.355 385.25 298.613 385.859V386H297.113ZM292.707 384.992C293.645 384.992 294.48 384.766 295.215 384.312C295.957 383.859 296.496 383.254 296.832 382.496V379.707H294.324C292.926 379.723 291.832 379.98 291.043 380.48C290.254 380.973 289.859 381.652 289.859 382.52C289.859 383.23 290.121 383.82 290.645 384.289C291.176 384.758 291.863 384.992 292.707 384.992ZM294.934 371.281H293.656L291.008 368H292.695L294.934 371.281ZM301.203 379.473C301.203 378.254 301.438 377.156 301.906 376.18C302.383 375.203 303.051 374.445 303.91 373.906C304.777 373.359 305.758 373.086 306.852 373.086C308.539 373.086 309.906 373.68 310.953 374.867C312 376.047 312.523 377.613 312.523 379.566V379.859C312.523 381.086 312.285 382.191 311.809 383.176C311.34 384.152 310.676 384.906 309.816 385.438C308.957 385.969 307.977 386.234 306.875 386.234C305.195 386.234 303.828 385.645 302.773 384.465C301.727 383.277 301.203 381.707 301.203 379.754V379.473ZM302.609 379.859C302.609 381.375 303 382.621 303.781 383.598C304.57 384.566 305.602 385.051 306.875 385.051C308.141 385.051 309.164 384.566 309.945 383.598C310.734 382.621 311.129 381.336 311.129 379.742V379.473C311.129 378.504 310.949 377.617 310.59 376.812C310.23 376.008 309.727 375.387 309.078 374.949C308.43 374.504 307.688 374.281 306.852 374.281C305.602 374.281 304.582 374.773 303.793 375.758C303.004 376.734 302.609 378.016 302.609 379.602V379.859ZM322.66 375.465C323.121 374.707 323.711 374.121 324.43 373.707C325.148 373.293 325.934 373.086 326.785 373.086C328.145 373.086 329.156 373.469 329.82 374.234C330.484 375 330.82 376.148 330.828 377.68V386H329.434V377.668C329.426 376.535 329.184 375.691 328.707 375.137C328.238 374.582 327.484 374.305 326.445 374.305C325.578 374.305 324.809 374.578 324.137 375.125C323.473 375.664 322.98 376.395 322.66 377.316V386H321.266V368H322.66V375.465ZM336.008 386H334.602V373.32H336.008V386ZM334.355 369.652C334.355 369.387 334.441 369.164 334.613 368.984C334.785 368.797 335.02 368.703 335.316 368.703C335.613 368.703 335.848 368.797 336.02 368.984C336.199 369.164 336.289 369.387 336.289 369.652C336.289 369.918 336.199 370.141 336.02 370.32C335.848 370.5 335.613 370.59 335.316 370.59C335.02 370.59 334.785 370.5 334.613 370.32C334.441 370.141 334.355 369.918 334.355 369.652ZM344.738 386.234C343.66 386.234 342.684 385.969 341.809 385.438C340.941 384.906 340.266 384.168 339.781 383.223C339.297 382.27 339.055 381.203 339.055 380.023V379.52C339.055 378.301 339.289 377.203 339.758 376.227C340.234 375.25 340.895 374.484 341.738 373.93C342.582 373.367 343.496 373.086 344.48 373.086C346.02 373.086 347.238 373.613 348.137 374.668C349.043 375.715 349.496 377.148 349.496 378.969V379.754H340.449V380.023C340.449 381.461 340.859 382.66 341.68 383.621C342.508 384.574 343.547 385.051 344.797 385.051C345.547 385.051 346.207 384.914 346.777 384.641C347.355 384.367 347.879 383.93 348.348 383.328L349.227 383.996C348.195 385.488 346.699 386.234 344.738 386.234ZM344.48 374.281C343.426 374.281 342.535 374.668 341.809 375.441C341.09 376.215 340.652 377.254 340.496 378.559H348.102V378.406C348.062 377.188 347.715 376.195 347.059 375.43C346.402 374.664 345.543 374.281 344.48 374.281ZM348.477 371.363H346.988L344.633 369.184L342.289 371.363H340.801L343.848 368.527H345.418L348.477 371.363ZM347.961 369.887L347.949 368.574C348.535 368.535 348.949 368.461 349.191 368.352C349.434 368.234 349.555 368.027 349.555 367.73C349.555 367.129 348.914 366.828 347.633 366.828L347.691 365.961C348.598 365.961 349.316 366.121 349.848 366.441C350.379 366.754 350.645 367.172 350.645 367.695C350.645 368.633 350.062 369.16 348.898 369.277V369.887H347.961ZM353.562 373.32L353.609 375.488C354.086 374.707 354.68 374.113 355.391 373.707C356.102 373.293 356.887 373.086 357.746 373.086C359.105 373.086 360.117 373.469 360.781 374.234C361.445 375 361.781 376.148 361.789 377.68V386H360.395V377.668C360.387 376.535 360.145 375.691 359.668 375.137C359.199 374.582 358.445 374.305 357.406 374.305C356.539 374.305 355.77 374.578 355.098 375.125C354.434 375.664 353.941 376.395 353.621 377.316V386H352.227V373.32H353.562ZM373.438 370.074V373.32H376.062V374.469H373.438V382.918C373.438 383.621 373.562 384.145 373.812 384.488C374.07 384.832 374.496 385.004 375.09 385.004C375.324 385.004 375.703 384.965 376.227 384.887L376.285 386.035C375.918 386.168 375.418 386.234 374.785 386.234C373.824 386.234 373.125 385.957 372.688 385.402C372.25 384.84 372.031 384.016 372.031 382.93V374.469H369.699V373.32H372.031V370.074H373.438ZM380.363 375.465C380.824 374.707 381.414 374.121 382.133 373.707C382.852 373.293 383.637 373.086 384.488 373.086C385.848 373.086 386.859 373.469 387.523 374.234C388.188 375 388.523 376.148 388.531 377.68V386H387.137V377.668C387.129 376.535 386.887 375.691 386.41 375.137C385.941 374.582 385.188 374.305 384.148 374.305C383.281 374.305 382.512 374.578 381.84 375.125C381.176 375.664 380.684 376.395 380.363 377.316V386H378.969V368H380.363V375.465ZM393.711 386H392.305V373.32H393.711V386ZM392.059 369.652C392.059 369.387 392.145 369.164 392.316 368.984C392.488 368.797 392.723 368.703 393.02 368.703C393.316 368.703 393.551 368.797 393.723 368.984C393.902 369.164 393.992 369.387 393.992 369.652C393.992 369.918 393.902 370.141 393.723 370.32C393.551 370.5 393.316 370.59 393.02 370.59C392.723 370.59 392.488 370.5 392.316 370.32C392.145 370.141 392.059 369.918 392.059 369.652ZM391.965 388.59C391.965 388.324 392.051 388.098 392.223 387.91C392.395 387.73 392.629 387.641 392.926 387.641C393.23 387.641 393.469 387.73 393.641 387.91C393.812 388.098 393.898 388.324 393.898 388.59C393.898 388.848 393.812 389.066 393.641 389.246C393.469 389.426 393.23 389.516 392.926 389.516C392.629 389.516 392.395 389.426 392.223 389.246C392.051 389.066 391.965 388.848 391.965 388.59ZM402.582 379.473C402.582 378.254 402.816 377.156 403.285 376.18C403.762 375.203 404.43 374.445 405.289 373.906C406.156 373.359 407.137 373.086 408.23 373.086C409.871 373.086 411.211 373.648 412.25 374.773C412.953 374.719 413.453 374.492 413.75 374.094C414.055 373.695 414.207 372.984 414.207 371.961H415.414C415.414 373.109 415.207 373.984 414.793 374.586C414.387 375.188 413.77 375.559 412.941 375.699C413.559 376.738 413.879 377.949 413.902 379.332V379.859C413.902 381.078 413.664 382.18 413.188 383.164C412.711 384.148 412.043 384.906 411.184 385.438C410.324 385.969 409.348 386.234 408.254 386.234C406.559 386.234 405.188 385.641 404.141 384.453C403.102 383.266 402.582 381.699 402.582 379.754V379.473ZM403.977 379.859C403.977 381.375 404.367 382.621 405.148 383.598C405.938 384.566 406.973 385.051 408.254 385.051C409.512 385.051 410.531 384.566 411.312 383.598C412.102 382.621 412.496 381.336 412.496 379.742V379.473C412.496 377.973 412.102 376.734 411.312 375.758C410.523 374.773 409.496 374.281 408.23 374.281C406.973 374.281 405.949 374.773 405.16 375.758C404.371 376.734 403.977 378.016 403.977 379.602V379.859ZM407.855 371.211V369.746C408.535 369.691 409.031 369.59 409.344 369.441C409.656 369.285 409.812 369.02 409.812 368.645C409.812 368.293 409.598 368.02 409.168 367.824C408.746 367.629 408.176 367.531 407.457 367.531L407.539 366.629C408.609 366.629 409.449 366.812 410.059 367.18C410.676 367.547 410.984 368.039 410.984 368.656C410.984 369.172 410.805 369.594 410.445 369.922C410.094 370.242 409.586 370.43 408.922 370.484L408.91 371.211H407.855ZM422.07 379.543C422.07 377.574 422.508 376.008 423.383 374.844C424.266 373.672 425.461 373.086 426.969 373.086C428.68 373.086 429.984 373.762 430.883 375.113V368H432.277V386H430.965L430.906 384.312C430.008 385.594 428.688 386.234 426.945 386.234C425.484 386.234 424.305 385.648 423.406 384.477C422.516 383.297 422.07 381.707 422.07 379.707V379.543ZM423.488 379.789C423.488 381.406 423.812 382.684 424.461 383.621C425.109 384.551 426.023 385.016 427.203 385.016C428.93 385.016 430.156 384.254 430.883 382.73V376.777C430.156 375.129 428.938 374.305 427.227 374.305C426.047 374.305 425.129 374.77 424.473 375.699C423.816 376.621 423.488 377.984 423.488 379.789ZM443.973 386C443.832 385.602 443.742 385.012 443.703 384.23C443.211 384.871 442.582 385.367 441.816 385.719C441.059 386.062 440.254 386.234 439.402 386.234C438.184 386.234 437.195 385.895 436.438 385.215C435.688 384.535 435.312 383.676 435.312 382.637C435.312 381.402 435.824 380.426 436.848 379.707C437.879 378.988 439.312 378.629 441.148 378.629H443.691V377.188C443.691 376.281 443.41 375.57 442.848 375.055C442.293 374.531 441.48 374.27 440.41 374.27C439.434 374.27 438.625 374.52 437.984 375.02C437.344 375.52 437.023 376.121 437.023 376.824L435.617 376.812C435.617 375.805 436.086 374.934 437.023 374.199C437.961 373.457 439.113 373.086 440.48 373.086C441.895 373.086 443.008 373.441 443.82 374.152C444.641 374.855 445.062 375.84 445.086 377.105V383.105C445.086 384.332 445.215 385.25 445.473 385.859V386H443.973ZM439.566 384.992C440.504 384.992 441.34 384.766 442.074 384.312C442.816 383.859 443.355 383.254 443.691 382.496V379.707H441.184C439.785 379.723 438.691 379.98 437.902 380.48C437.113 380.973 436.719 381.652 436.719 382.52C436.719 383.23 436.98 383.82 437.504 384.289C438.035 384.758 438.723 384.992 439.566 384.992ZM444.195 371.141V371.258H442.895L440.926 369.113L438.969 371.258H437.691V371.105L440.48 368.117H441.371L444.195 371.141ZM452.668 383.984L456.371 373.32H457.883L452.469 388.156L452.188 388.812C451.492 390.352 450.418 391.121 448.965 391.121C448.629 391.121 448.27 391.066 447.887 390.957L447.875 389.797L448.602 389.867C449.289 389.867 449.844 389.695 450.266 389.352C450.695 389.016 451.059 388.434 451.355 387.605L451.977 385.895L447.195 373.32H448.73L452.668 383.984Z" fill="black"/>
<defs>
<linearGradient id="paint0_linear_20_296" x1="379.669" y1="244.751" x2="379.669" y2="85.228" gradientUnits="userSpaceOnUse">
<stop stop-color="#808080" stop-opacity="0.25"/>
<stop offset="0.54" stop-color="#808080" stop-opacity="0.12"/>
<stop offset="1" stop-color="#808080" stop-opacity="0.1"/>
</linearGradient>
<clipPath id="clip0_20_296">
<rect width="351" height="262" fill="white" transform="translate(95)"/>
</clipPath>
</defs>
</svg>
